<svg width="32" height="32" viewBox="0 0 32 32" xmlns="http://www.w3.org/2000/svg">
  <rect width="32" height="32" rx="16" fill="#2c3e50"/>
  <path d="M16 8C11.03 8 7 12.03 7 17C7 21.97 11.03 26 16 26C20.97 26 25 21.97 25 17C25 12.03 20.97 8 16 8Z" fill="#3498db"/>
  <path d="M16 12C13.24 12 11 14.24 11 17C11 19.76 13.24 22 16 22C18.76 22 21 19.76 21 17C21 14.24 18.76 12 16 12Z" fill="#ffffff"/>
  <path d="M16 14C14.34 14 13 15.34 13 17C13 18.66 14.34 20 16 20C17.66 20 19 18.66 19 17C19 15.34 17.66 14 16 14Z" fill="#2c3e50"/>
</svg>